<svg width="60" height="60" viewBox="0 0 60 60" fill="none" xmlns="http://www.w3.org/2000/svg">
<path d="M30 37.5C31.9891 37.5 33.8968 36.7098 35.3033 35.3033C36.7098 33.8968 37.5 31.9891 37.5 30C37.5 28.0109 36.7098 26.1032 35.3033 24.6967C33.8968 23.2902 31.9891 22.5 30 22.5C28.0109 22.5 26.1032 23.2902 24.6967 24.6967C23.2902 26.1032 22.5 28.0109 22.5 30C22.5 31.9891 23.2902 33.8968 24.6967 35.3033C26.1032 36.7098 28.0109 37.5 30 37.5Z" fill="white"/>
<path fill-rule="evenodd" clip-rule="evenodd" d="M32.2513 3.7501C38.2513 4.1251 43.8763 7.1251 48.0013 11.2501C52.8763 16.5001 55.5013 22.8751 55.5013 30.3751C55.5013 36.3751 53.2513 42.0001 49.5013 46.8751C45.7513 51.3751 40.5013 54.7501 34.5013 55.8751C28.5013 57.0001 22.5013 56.2501 17.2513 53.2501C12.0013 50.2501 7.8763 45.7501 5.6263 40.1251C3.3763 34.5001 3.0013 28.1251 4.8763 22.5001C6.7513 16.5001 10.1263 11.6251 15.3763 8.2501C20.2513 4.8751 26.2513 3.3751 32.2513 3.7501ZM34.1263 52.1251C39.0013 51.0001 43.5013 48.3751 46.8763 44.2501C49.8763 40.1251 51.7513 35.2501 51.3763 30.0001C51.3763 24.0001 49.1263 18.0001 45.0013 13.8751C41.2513 10.1251 36.7513 7.8751 31.5013 7.5001C26.6263 7.1251 21.3763 8.2501 17.2513 11.2501C13.1263 14.2501 10.1263 18.3751 8.6263 23.6251C7.1263 28.5001 7.1263 33.7501 9.3763 38.6251C11.6263 43.5001 15.0013 47.2501 19.5013 49.8751C24.0013 52.5001 29.2513 53.2501 34.1263 52.1251Z" fill="white"/>
</svg>
