<svg width="32" height="32" viewBox="0 0 32 32" fill="none" xmlns="http://www.w3.org/2000/svg">
<path d="M15.6696 4.04395C12.4244 4.04395 9.31213 5.33309 7.01743 7.62779C4.72274 9.92248 3.43359 13.0348 3.43359 16.2799C3.43359 19.5251 4.72274 22.6374 7.01743 24.9321C9.31213 27.2268 12.4244 28.5159 15.6696 28.5159C18.9148 28.5159 22.0271 27.2268 24.3217 24.9321C26.6164 22.6374 27.9056 19.5251 27.9056 16.2799C27.9056 13.0348 26.6164 9.92248 24.3217 7.62779C22.0271 5.33309 18.9148 4.04395 15.6696 4.04395Z" fill="#039BE5"/>
<path d="M17.3266 19.5237H20.4931L20.9903 16.3069H17.3259V14.5488C17.3259 13.2125 17.7625 12.0275 19.0126 12.0275H21.0212V9.22034C20.6683 9.17269 19.9219 9.06836 18.5115 9.06836C15.5665 9.06836 13.8399 10.6236 13.8399 14.1669V16.3069H10.8125V19.5237H13.8399V28.3652C14.4395 28.4553 15.0468 28.5165 15.6702 28.5165C16.2337 28.5165 16.7837 28.465 17.3266 28.3916V19.5237Z" fill="white"/>
</svg>
