<svg width="60" height="60" viewBox="0 0 60 60" fill="none" xmlns="http://www.w3.org/2000/svg">
<path d="M30.1541 4.21875C11.4631 4.21875 10.8414 26.648 3.98828 35.3705C3.98828 39.1083 13.9564 50.3221 23.9248 52.8149C25.8871 54.3418 27.9736 55.3125 30.154 55.3125C32.1309 55.3125 34.0301 54.5158 35.8303 53.2306C45.7712 50.7031 55.0765 39.7273 55.0765 37.8625C55.0756 30.385 50.7228 4.21875 30.1541 4.21875ZM33.8931 16.0584L35.1382 21.665C37.7501 21.665 39.7307 19.855 40.7009 18.7555C41.9598 21.1011 42.6089 24.0468 42.6089 27.2717V31.7065L43.0648 32.2339C43.0648 32.2339 43.8558 33.134 43.8558 34.7479C43.8558 36.8349 42.1054 38.2379 42.1054 38.2379L41.6549 38.5803L41.4681 39.115C40.2421 42.6365 38.1835 45.862 35.9933 48.1274C33.8031 50.3929 31.4583 51.5625 30.1541 51.5625C28.8498 51.5625 26.507 50.393 24.3167 48.1274C22.1263 45.8619 20.0673 42.6368 18.8418 39.115L18.655 38.5785L18.2046 38.2361C18.2046 38.2361 16.4541 36.833 16.4541 34.7461C16.4541 33.1321 17.2451 32.2339 17.2451 32.2339L17.7011 31.7047V27.2717C17.7011 27.0576 17.7156 26.8499 17.7212 26.6382C17.8053 26.61 28.9281 22.8856 33.8931 16.0584Z" fill="white"/>
</svg>
