<svg width="25" height="25" viewBox="0 0 25 25" fill="none" xmlns="http://www.w3.org/2000/svg">
<path d="M7.6625 3.49127C8.51453 2.84483 9.5555 2.49653 10.625 2.50002C10.9943 2.49208 11.3596 2.57724 11.6872 2.74763C12.0149 2.91803 12.2944 3.16818 12.5 3.47502C12.7056 3.16818 12.9851 2.91803 13.3128 2.74763C13.6404 2.57724 14.0057 2.49208 14.375 2.50002C15.4445 2.49653 16.4855 2.84483 17.3375 3.49127C17.9937 4.00127 18.5 4.70752 18.6787 5.56127C19.0887 5.59252 19.4638 5.76252 19.7787 6.01877C20.2563 6.40627 20.6038 6.98752 20.8225 7.60252C21.165 8.55877 21.2575 9.77752 20.9025 10.815C20.9925 10.8575 21.0808 10.9075 21.1675 10.965C21.5112 11.1938 21.7725 11.5213 21.965 11.9075C22.3438 12.6638 22.5 13.7188 22.5 15C22.5 16.4263 21.9563 17.3838 21.2663 17.975C20.8842 18.3015 20.4341 18.5385 19.9487 18.6688C19.8237 19.3663 19.4738 20.1738 18.925 20.8588C18.2125 21.7525 17.1075 22.5 15.625 22.5C14.45 22.5 13.515 21.85 12.9075 21.2125C12.7617 21.0608 12.6256 20.9001 12.5 20.7313C12.3744 20.9001 12.2383 21.0608 12.0925 21.2125C11.485 21.85 10.5513 22.5 9.375 22.5C7.8925 22.5 6.78875 21.7525 6.075 20.8588C5.56233 20.2219 5.21111 19.4706 5.05125 18.6688C4.56591 18.5385 4.11579 18.3015 3.73375 17.975C3.04375 17.3838 2.5 16.425 2.5 15C2.5 13.7188 2.6575 12.6625 3.035 11.9075C3.21291 11.5281 3.48806 11.2025 3.8325 10.9638C3.91777 10.9093 4.00626 10.86 4.0975 10.8163C3.7425 9.77627 3.835 8.55877 4.1775 7.60252C4.39625 6.98752 4.74375 6.40627 5.22125 6.01877C5.53625 5.76252 5.91125 5.59377 6.32125 5.56127C6.50125 4.70752 7.00625 4.00127 7.6625 3.49127ZM11.875 5.62502V5.61252L11.8725 5.55002C11.8549 5.22405 11.79 4.90237 11.68 4.59502C11.6032 4.36237 11.4706 4.15208 11.2937 3.98252C11.1091 3.82174 10.8695 3.73845 10.625 3.75002C9.83353 3.74639 9.06263 4.0019 8.43 4.47752C7.85 4.92877 7.5 5.54002 7.5 6.25002C7.49992 6.349 7.47634 6.44655 7.43119 6.53463C7.38605 6.62271 7.32062 6.69881 7.24031 6.75667C7.16 6.81452 7.0671 6.85247 6.96925 6.8674C6.8714 6.88232 6.77141 6.8738 6.6775 6.84252C6.4425 6.76502 6.2325 6.80877 6.00875 6.98877C5.76375 7.18877 5.525 7.54377 5.35375 8.02252C5.005 9.00002 5.04125 10.1838 5.52 10.9038C5.58837 11.0063 5.6249 11.1268 5.625 11.25H6.5625C7.30842 11.25 8.02379 11.5463 8.55124 12.0738C9.07868 12.6012 9.375 13.3166 9.375 14.0625V14.4813C9.79201 14.6287 10.1435 14.9188 10.3673 15.3003C10.5911 15.6818 10.6728 16.1302 10.598 16.5661C10.5232 17.002 10.2967 17.3975 9.95854 17.6826C9.62037 17.9677 9.1923 18.124 8.75 18.124C8.3077 18.124 7.87963 17.9677 7.54146 17.6826C7.20329 17.3975 6.9768 17.002 6.902 16.5661C6.82721 16.1302 6.90893 15.6818 7.13273 15.3003C7.35653 14.9188 7.70799 14.6287 8.125 14.4813V14.0625C8.125 13.2 7.425 12.5 6.5625 12.5H4.375C4.30028 12.4999 4.22619 12.4863 4.15625 12.46L4.1525 12.4675C3.905 12.9613 3.75 13.7813 3.75 15C3.75 16.0738 4.14375 16.6788 4.5475 17.025C4.98125 17.3975 5.4625 17.5 5.625 17.5C5.79076 17.5 5.94973 17.5659 6.06694 17.6831C6.18415 17.8003 6.25 17.9593 6.25 18.125C6.25 18.585 6.5 19.3888 7.05 20.0788C7.58625 20.7475 8.3575 21.25 9.375 21.25C10.075 21.25 10.7025 20.8588 11.1875 20.35C11.4262 20.1 11.6125 19.8413 11.7338 19.6288C11.7888 19.5345 11.8361 19.4358 11.875 19.3338V9.37502H10.5188C10.3713 9.79203 10.0812 10.1435 9.6997 10.3673C9.31819 10.5911 8.86985 10.6728 8.43392 10.598C7.99798 10.5232 7.60252 10.2967 7.31743 9.95856C7.03235 9.62039 6.87598 9.19232 6.87598 8.75002C6.87598 8.30771 7.03235 7.87965 7.31743 7.54148C7.60252 7.20331 7.99798 6.97682 8.43392 6.90202C8.86985 6.82723 9.31819 6.90895 9.6997 7.13275C10.0812 7.35655 10.3713 7.70801 10.5188 8.12502H11.875V5.62502ZM13.125 18.1238V19.3325L13.14 19.3738C13.1633 19.4363 13.205 19.5209 13.265 19.6275C13.3888 19.84 13.5737 20.0988 13.8112 20.3488C14.2975 20.8575 14.9263 21.2488 15.625 21.2488C16.6425 21.2488 17.4137 20.7463 17.95 20.0775C18.5 19.3875 18.75 18.5838 18.75 18.1238C18.75 17.958 18.8158 17.799 18.9331 17.6818C19.0503 17.5646 19.2092 17.4988 19.375 17.4988C19.5375 17.4988 20.0187 17.3963 20.4525 17.0238C20.8562 16.6775 21.25 16.0725 21.25 14.9988C21.25 13.78 21.0938 12.9613 20.8475 12.4663C20.7663 12.2812 20.6368 12.1215 20.4725 12.0038C20.3317 11.914 20.1669 11.8691 20 11.875C19.8869 11.875 19.776 11.8442 19.6791 11.7861C19.5821 11.728 19.5027 11.6447 19.4493 11.545C19.396 11.4454 19.3706 11.3331 19.376 11.2202C19.3814 11.1072 19.4174 10.9979 19.48 10.9038C19.96 10.1838 19.995 9.00002 19.6462 8.02252C19.475 7.54377 19.2362 7.18752 18.9912 6.98877C18.7675 6.80877 18.5575 6.76377 18.3225 6.84252C18.2286 6.8738 18.1286 6.88232 18.0308 6.8674C17.9329 6.85247 17.84 6.81452 17.7597 6.75667C17.6794 6.69881 17.614 6.62271 17.5688 6.53463C17.5237 6.44655 17.5001 6.349 17.5 6.25002C17.5 5.54002 17.15 4.92877 16.5688 4.47752C15.9365 4.00216 15.166 3.74666 14.375 3.75002C14.1305 3.73845 13.8909 3.82174 13.7063 3.98252C13.529 4.15194 13.3959 4.36225 13.3187 4.59502C13.2002 4.92165 13.1348 5.26518 13.125 5.61252V16.875H14.0625C14.925 16.875 15.625 16.175 15.625 15.3125V13.0188C15.208 12.8713 14.8565 12.5812 14.6327 12.1997C14.4089 11.8182 14.3272 11.3699 14.402 10.9339C14.4768 10.498 14.7033 10.1025 15.0415 9.81745C15.3796 9.53237 15.8077 9.376 16.25 9.376C16.6923 9.376 17.1204 9.53237 17.4585 9.81745C17.7967 10.1025 18.0232 10.498 18.098 10.9339C18.1728 11.3699 18.0911 11.8182 17.8673 12.1997C17.6435 12.5812 17.292 12.8713 16.875 13.0188V15.3125C16.875 16.0584 16.5787 16.7738 16.0512 17.3013C15.5238 17.8287 14.8084 18.125 14.0625 18.125L13.125 18.1238ZM8.125 8.75002C8.125 8.91578 8.19085 9.07475 8.30806 9.19196C8.42527 9.30917 8.58424 9.37502 8.75 9.37502C8.91576 9.37502 9.07473 9.30917 9.19194 9.19196C9.30915 9.07475 9.375 8.91578 9.375 8.75002C9.375 8.58426 9.30915 8.42529 9.19194 8.30808C9.07473 8.19087 8.91576 8.12502 8.75 8.12502C8.58424 8.12502 8.42527 8.19087 8.30806 8.30808C8.19085 8.42529 8.125 8.58426 8.125 8.75002ZM16.25 11.875C16.4158 11.875 16.5747 11.8092 16.6919 11.692C16.8092 11.5748 16.875 11.4158 16.875 11.25C16.875 11.0843 16.8092 10.9253 16.6919 10.8081C16.5747 10.6909 16.4158 10.625 16.25 10.625C16.0842 10.625 15.9253 10.6909 15.8081 10.8081C15.6908 10.9253 15.625 11.0843 15.625 11.25C15.625 11.4158 15.6908 11.5748 15.8081 11.692C15.9253 11.8092 16.0842 11.875 16.25 11.875ZM8.75 15.625C8.58424 15.625 8.42527 15.6909 8.30806 15.8081C8.19085 15.9253 8.125 16.0843 8.125 16.25C8.125 16.4158 8.19085 16.5748 8.30806 16.692C8.42527 16.8092 8.58424 16.875 8.75 16.875C8.91576 16.875 9.07473 16.8092 9.19194 16.692C9.30915 16.5748 9.375 16.4158 9.375 16.25C9.375 16.0843 9.30915 15.9253 9.19194 15.8081C9.07473 15.6909 8.91576 15.625 8.75 15.625Z" fill="white"/>
</svg>
