<svg width="20" height="20" viewBox="0 0 20 20" fill="none" xmlns="http://www.w3.org/2000/svg">
<path d="M17.3278 3.21436C18.2184 3.21436 18.8865 3.41769 19.332 3.82436C19.754 4.21007 19.976 4.77328 19.9981 5.514L20 5.639V14.1576C20 14.9609 19.7772 15.5645 19.3316 15.9683C18.9099 16.3516 18.2882 16.5532 17.4665 16.5729L17.3278 16.5747H2.67224C1.78162 16.5747 1.11353 16.3727 0.667962 15.9686C0.245969 15.5853 0.0239622 15.0234 0.00194292 14.2829L0 14.1579V5.63936C0 4.83078 0.222784 4.22447 0.66835 3.82043C1.09008 3.43757 1.71181 3.23614 2.53351 3.21614L2.67224 3.21436H17.3278ZM1.37012 14.0872C1.37012 14.4941 1.48358 14.8005 1.71051 15.0065C1.92034 15.1965 2.21436 15.2989 2.59258 15.3136L2.68972 15.3154L9.48086 15.3151V11.1697H9.42141C9.27971 11.5711 9.05693 11.9545 8.75306 12.3197C8.44988 12.6842 8.10143 13.0149 7.71479 13.3051C7.3501 13.5826 6.95346 13.8226 6.53196 14.0208C6.13199 14.2058 5.77022 14.3219 5.44667 14.369C5.20316 14.4 5.01172 14.3503 4.87235 14.2201C4.73324 14.0898 4.66369 13.9386 4.66369 13.7665C4.66369 13.5786 4.72327 13.4261 4.84243 13.309C4.94683 13.2061 5.08801 13.1404 5.26598 13.1119L5.34486 13.1015C5.64018 13.0705 5.95492 12.9702 6.2891 12.8004C6.63644 12.6229 6.96312 12.4133 7.26404 12.1747C7.56866 11.9366 7.8505 11.6749 8.10647 11.3926C8.32226 11.153 8.49155 10.9264 8.61434 10.7126L8.66369 10.6219H1.37012V14.0872ZM18.6295 10.6219H11.3359C11.461 10.8619 11.6469 11.1188 11.8935 11.3926C12.1496 11.675 12.4316 11.9366 12.7364 12.1747C13.0511 12.4226 13.3744 12.6311 13.7062 12.8004C14.0016 12.9509 14.2821 13.047 14.5479 13.0886L14.647 13.1015C14.8682 13.1224 15.0384 13.1915 15.1576 13.3086C15.2767 13.4263 15.3363 13.5789 15.3363 13.7665C15.3363 13.9386 15.2668 14.0898 15.1276 14.2201C14.9888 14.3503 14.7974 14.4 14.5533 14.369C14.2243 14.3219 13.8611 14.2058 13.4638 14.0208C13.0442 13.8216 12.6491 13.5817 12.2852 13.3051C11.8966 13.0129 11.5505 12.6844 11.2469 12.3194C10.9872 12.0105 10.7789 11.6678 10.6291 11.3026L10.5786 11.1697H10.5106V15.3151H17.3107C17.7303 15.3151 18.0552 15.2122 18.2852 15.0065C18.4974 14.816 18.6116 14.5403 18.6279 14.1794L18.6299 14.0872L18.6295 10.6219ZM17.4059 4.47543L17.3107 4.47364H10.5106V7.15686C10.6872 6.83697 10.9185 6.54517 11.1956 6.29257C11.453 6.05816 11.7545 5.86866 12.0855 5.73328C12.4042 5.60356 12.7491 5.53688 13.0977 5.53757C13.7106 5.53757 14.2199 5.724 14.6256 6.09686C15.0313 6.46971 15.2341 6.94293 15.2341 7.5165C15.2341 7.84507 15.1576 8.1515 15.0045 8.43578C14.8461 8.72589 14.6278 8.98487 14.3618 9.19828C14.1129 9.39949 13.836 9.56932 13.5384 9.70328L13.4043 9.7615H18.6295V5.70971C18.6295 5.30281 18.5147 4.99507 18.2852 4.7865C18.0731 4.59364 17.7799 4.48971 17.4059 4.47543ZM9.48125 4.47364H2.68933C2.26371 4.47364 1.93744 4.57793 1.71051 4.7865C1.50068 4.97936 1.38799 5.25638 1.37245 5.61757L1.37012 5.70971V9.7615H6.58714C6.24241 9.6177 5.92266 9.42791 5.63824 9.19828C5.3715 8.98458 5.15198 8.72571 4.99165 8.43578C4.83484 8.15093 4.75449 7.83572 4.75733 7.5165C4.75733 6.94293 4.9616 6.46971 5.37012 6.09686C5.7789 5.724 6.28664 5.53757 6.89334 5.53757C7.25083 5.53757 7.59135 5.60281 7.9149 5.73328C8.24577 5.8687 8.54714 6.0582 8.80435 6.29257C9.04516 6.51069 9.24944 6.76043 9.41053 7.03364L9.48086 7.15686L9.48125 4.47364ZM6.96211 6.64828C6.65592 6.64828 6.41189 6.73305 6.23004 6.90257C6.0487 7.07209 5.95803 7.30543 5.95803 7.60257C5.95803 7.84781 6.04028 8.09162 6.20478 8.334C6.36902 8.57638 6.59595 8.79543 6.88556 8.99114C7.18965 9.19353 7.52494 9.35303 7.88032 9.46436C8.20828 9.56912 8.55333 9.62817 8.91548 9.6415L9.07208 9.64436H9.32737V9.42507C9.32976 9.06344 9.26646 8.70398 9.14008 8.3615C9.02275 8.04075 8.84723 7.74057 8.62094 7.47364C8.39946 7.21555 8.14688 7.0134 7.86322 6.86721C7.58828 6.72371 7.27752 6.64828 6.96134 6.64828M13.0293 6.64828C12.7158 6.64859 12.4077 6.72405 12.1356 6.86721C11.852 7.0134 11.5995 7.21555 11.3783 7.47364C11.1517 7.74103 10.9748 8.04103 10.8549 8.3615C10.742 8.65905 10.6785 8.97051 10.6664 9.28543L10.6633 9.42507V9.64436H10.919C11.3271 9.64707 11.7329 9.58621 12.1189 9.46436C12.4735 9.35374 12.8078 9.19418 13.1102 8.99114C13.3967 8.79543 13.6223 8.57638 13.7871 8.334C13.9518 8.09162 14.0341 7.84781 14.0338 7.60257C14.0338 7.30543 13.9444 7.07209 13.7657 6.90257C13.5869 6.73305 13.3415 6.64828 13.0293 6.64828Z" fill="#F4F4F4"/>
</svg>
