<svg width="24" height="24" viewBox="0 0 24 24" fill="none" xmlns="http://www.w3.org/2000/svg">
<path d="M12 12.5H4.5V18.5C4.5 19.163 4.76339 19.7989 5.23223 20.2678C5.70107 20.7366 6.33696 21 7 21H12M12 12.5V21M12 12.5V8M12 12.5H4.25C3.85218 12.5 3.47064 12.342 3.18934 12.0607C2.90804 11.7794 2.75 11.3978 2.75 11V9.5C2.75 9.10218 2.90804 8.72064 3.18934 8.43934C3.47064 8.15804 3.85218 8 4.25 8H12M12 12.5H19.5V18.5C19.5 19.163 19.2366 19.7989 18.7678 20.2678C18.2989 20.7366 17.663 21 17 21H12M12 12.5H19.75C20.1478 12.5 20.5294 12.342 20.8107 12.0607C21.092 11.7794 21.25 11.3978 21.25 11V9.5C21.25 9.10218 21.092 8.72064 20.8107 8.43934C20.5294 8.15804 20.1478 8 19.75 8H12M12 8V5.5M12 8H9.5C8.83696 8 8.20107 7.73661 7.73223 7.26777C7.26339 6.79893 7 6.16304 7 5.5C7 4.83696 7.26339 4.20107 7.73223 3.73223C8.20107 3.26339 8.83696 3 9.5 3C9.8283 3 10.1534 3.06466 10.4567 3.1903C10.76 3.31594 11.0356 3.50009 11.2678 3.73223C11.4999 3.96438 11.6841 4.23998 11.8097 4.54329C11.9353 4.84661 12 5.1717 12 5.5M12 8H14.5C15.163 8 15.7989 7.73661 16.2678 7.26777C16.7366 6.79893 17 6.16304 17 5.5C17 4.83696 16.7366 4.20107 16.2678 3.73223C15.7989 3.26339 15.163 3 14.5 3C13.837 3 13.2011 3.26339 12.7322 3.73223C12.2634 4.20107 12 4.83696 12 5.5" stroke="#F4F4F4" stroke-linecap="round" stroke-linejoin="round"/>
</svg>
