<svg width="32" height="32" viewBox="0 0 32 32" fill="none" xmlns="http://www.w3.org/2000/svg">
<path d="M26.9951 13.9001H26.0688V13.8523H15.7188V18.4523H22.218C21.2698 21.1301 18.722 23.0523 15.7188 23.0523C11.9082 23.0523 8.81875 19.9629 8.81875 16.1523C8.81875 12.3418 11.9082 9.25234 15.7188 9.25234C17.4777 9.25234 19.0779 9.91589 20.2963 10.9998L23.5491 7.74699C21.4952 5.83282 18.7479 4.65234 15.7188 4.65234C9.36788 4.65234 4.21875 9.80147 4.21875 16.1523C4.21875 22.5032 9.36788 27.6523 15.7188 27.6523C22.0696 27.6523 27.2188 22.5032 27.2188 16.1523C27.2188 15.3813 27.1394 14.6286 26.9951 13.9001Z" fill="#FFC107"/>
<path d="M5.54688 10.7997L9.3252 13.5706C10.3475 11.0394 12.8235 9.25235 15.7209 9.25235C17.4798 9.25235 19.0801 9.9159 20.2985 10.9998L23.5513 7.74699C21.4974 5.83282 18.75 4.65234 15.7209 4.65234C11.3038 4.65234 7.47312 7.14612 5.54688 10.7997Z" fill="#FF3D00"/>
<path d="M15.7183 27.6519C18.6888 27.6519 21.3878 26.5151 23.4285 24.6665L19.8693 21.6546C18.7147 22.5292 17.2795 23.0519 15.7183 23.0519C12.7272 23.0519 10.1874 21.1446 9.23062 18.4829L5.48047 21.3723C7.38372 25.0966 11.2489 27.6519 15.7183 27.6519Z" fill="#4CAF50"/>
<path d="M26.9951 13.8998H26.0688V13.8521H15.7188V18.452H22.218C21.7626 19.7383 20.9352 20.8475 19.868 21.6554L19.8697 21.6542L23.4289 24.6661C23.1771 24.8949 27.2188 21.902 27.2188 16.1521C27.2188 15.381 27.1394 14.6283 26.9951 13.8998Z" fill="#1976D2"/>
</svg>
