<svg width="31" height="30" viewBox="0 0 31 30" fill="none" xmlns="http://www.w3.org/2000/svg">
<path fill-rule="evenodd" clip-rule="evenodd" d="M17.4651 4.57656C16.8378 4.02844 16.0021 3.72238 15.1327 3.72238C14.2633 3.72238 13.4276 4.02844 12.8004 4.57656L5.87515 10.6283C5.70555 10.7766 5.5914 10.9697 5.5488 11.1803C4.71816 15.2986 4.65693 19.515 5.36766 23.6518L5.53533 24.6345H9.99196V16.1689C9.99196 15.8978 10.1102 15.6378 10.3208 15.4461C10.5314 15.2544 10.8169 15.1466 11.1147 15.1466H19.1507C19.4485 15.1466 19.7341 15.2544 19.9446 15.4461C20.1552 15.6378 20.2735 15.8978 20.2735 16.1689V24.6345H24.7301L24.8978 23.6532C25.6092 19.516 25.5485 15.2991 24.7182 11.1803C24.6751 10.9696 24.5605 10.7765 24.3903 10.6283L17.4651 4.57656ZM11.2465 3.10179C12.2918 2.1888 13.6842 1.67903 15.1327 1.67903C16.5812 1.67903 17.9737 2.1888 19.019 3.10179L25.9457 9.15352C26.4547 9.59786 26.799 10.1785 26.9263 10.8109C27.7994 15.1559 27.8637 19.6036 27.1164 23.968L26.8469 25.545C26.7938 25.8614 26.6177 26.1499 26.3507 26.358C26.0836 26.5662 25.7433 26.6801 25.3918 26.679H19.1507C18.853 26.679 18.5674 26.5713 18.3568 26.3796C18.1463 26.1879 18.028 25.9279 18.028 25.6568V17.1912H12.2375V25.6568C12.2375 25.9279 12.1192 26.1879 11.9086 26.3796C11.6981 26.5713 11.4125 26.679 11.1147 26.679H4.87364C4.52211 26.6801 4.18184 26.5662 3.91479 26.358C3.64773 26.1499 3.47162 25.8614 3.41854 25.545L3.14907 23.968C2.40178 19.6036 2.46605 15.1559 3.3392 10.8109C3.46644 10.1785 3.81076 9.59786 4.31974 9.15216L11.2465 3.10179Z" fill="#A2A2A2"/>
</svg>
