<svg width="31" height="30" viewBox="0 0 31 30" fill="none" xmlns="http://www.w3.org/2000/svg">
<path d="M10.049 18C9.50338 18.0008 8.9645 18.1207 8.46998 18.3513C7.97546 18.5819 7.53721 18.9176 7.18582 19.335C6.83444 19.7525 6.57838 20.2416 6.43551 20.7682C6.29265 21.2948 6.26642 21.8463 6.35866 22.3841C6.45091 22.9219 6.6594 23.433 6.96958 23.882C7.27977 24.3309 7.68418 24.7067 8.15458 24.9831C8.62499 25.2596 9.15006 25.4301 9.69315 25.4827C10.2362 25.5353 10.7843 25.4687 11.299 25.2876" stroke="#A2A2A2" stroke-width="1.5" stroke-linecap="round" stroke-linejoin="round"/>
<path d="M6.62792 20.0061C5.87989 19.6459 5.23331 19.1052 4.74653 18.4327C4.25975 17.7601 3.94809 16.9769 3.83969 16.1538C3.73128 15.3307 3.82954 14.4935 4.12559 13.7178C4.42164 12.9422 4.90617 12.2525 5.53545 11.7109M5.57295 11.6097C5.16301 10.9962 4.98334 10.2575 5.06573 9.52429C5.14813 8.79108 5.48729 8.11067 6.02316 7.60352C6.55903 7.09636 7.25705 6.79518 7.99365 6.75328C8.73025 6.71138 9.45792 6.93147 10.0478 7.37458M10.3453 7.45583C10.1459 7.03213 10.0443 6.56903 10.0479 6.10076C10.0516 5.63249 10.1604 5.17102 10.3664 4.75047C10.5723 4.32992 10.8702 3.96104 11.2379 3.67109C11.6056 3.38114 12.0338 3.17754 12.4907 3.07534C12.9477 2.97313 13.4218 2.97494 13.878 3.08062C14.3342 3.1863 14.7608 3.39316 15.1263 3.6859C15.4918 3.97864 15.7868 4.34978 15.9895 4.77188C16.1923 5.19399 16.2976 5.65627 16.2977 6.12455V25.4999C16.2977 26.163 16.0343 26.7989 15.5655 27.2678C15.0967 27.7366 14.4608 28 13.7978 28C13.1347 28 12.4989 27.7366 12.03 27.2678C11.5612 26.7989 11.2978 26.163 11.2978 25.4999M16.2977 9.24962C16.2977 10.2442 16.6928 11.198 17.396 11.9013C18.0993 12.6046 19.0531 12.9997 20.0476 12.9997M22.5476 17.9998C23.0932 18.0006 23.6321 18.1205 24.1266 18.3511C24.6211 18.5817 25.0594 18.9174 25.4107 19.3348C25.7621 19.7523 26.0182 20.2414 26.1611 20.768C26.3039 21.2946 26.3302 21.846 26.2379 22.3838C26.1457 22.9216 25.9372 23.4328 25.627 23.8817C25.3168 24.3307 24.9124 24.7065 24.442 24.9829C23.9716 25.2594 23.4465 25.4299 22.9034 25.4825C22.3603 25.5351 21.8123 25.4685 21.2976 25.2874" stroke="#A2A2A2" stroke-width="1.5" stroke-linecap="round" stroke-linejoin="round"/>
<path d="M25.9667 20.0061C26.7147 19.6459 27.3613 19.1052 27.848 18.4327C28.3348 17.7601 28.6465 16.9769 28.7549 16.1538C28.8633 15.3307 28.765 14.4935 28.469 13.7178C28.1729 12.9422 27.6884 12.2525 27.0591 11.7109M27.0216 11.6097C27.4316 10.9962 27.6112 10.2575 27.5288 9.52429C27.4464 8.79108 27.1073 8.11067 26.5714 7.60352C26.0355 7.09636 25.3375 6.79518 24.6009 6.75328C23.8643 6.71138 23.1367 6.93147 22.5467 7.37458M16.2969 6.12455C16.297 5.65627 16.4023 5.19399 16.605 4.77188C16.8078 4.34978 17.1028 3.97864 17.4683 3.6859C17.8338 3.39316 18.2604 3.1863 18.7166 3.08062C19.1728 2.97494 19.6469 2.97313 20.1038 3.07534C20.5608 3.17754 20.989 3.38114 21.3567 3.67109C21.7244 3.96104 22.0222 4.32992 22.2282 4.75047C22.4342 5.17102 22.543 5.63249 22.5466 6.10076C22.5503 6.56903 22.4486 7.03213 22.2492 7.45583M21.2968 25.4999C21.2968 26.163 21.0334 26.7989 20.5645 27.2678C20.0957 27.7366 19.4598 28 18.7968 28C18.1338 28 17.4979 27.7366 17.0291 27.2678C16.5603 26.7989 16.2969 26.163 16.2969 25.4999" stroke="#A2A2A2" stroke-width="1.5" stroke-linecap="round" stroke-linejoin="round"/>
</svg>
