<svg width="60" height="60" viewBox="0 0 60 60" fill="none" xmlns="http://www.w3.org/2000/svg">
<path d="M18.5392 17.0828L18.5392 17.0828L18.5393 17.0828L18.5399 17.0829L18.5426 17.0835L18.5543 17.0859L18.602 17.0954C18.6444 17.1038 18.7079 17.1162 18.7909 17.1321C18.957 17.1639 19.2014 17.2094 19.513 17.2641C20.1364 17.3736 21.0279 17.5197 22.0982 17.6659C24.2409 17.9586 27.0899 18.25 29.9324 18.25C32.7729 18.25 35.2995 17.9589 37.116 17.6676C38.0238 17.5221 38.7529 17.3766 39.2538 17.268C39.5042 17.2136 39.6974 17.1685 39.8273 17.1372C39.8922 17.1215 39.9413 17.1093 39.9738 17.1011L40.0099 17.0919L40.0184 17.0897L40.0202 17.0892L40.0204 17.0891L18.5392 17.0828ZM18.5392 17.0828L18.2756 17.0288L18.0853 17.2191C17.0815 18.2229 16.4664 19.7892 16.0788 21.4403C15.6876 23.1067 15.5114 24.9352 15.4363 26.5342L15.4358 26.5459V26.5576V30.9375V31.3734L15.1236 31.7525C15.1235 31.7526 15.1234 31.7528 15.1234 31.7529C15.1233 31.753 15.1232 31.753 15.1231 31.7531C15.1231 31.7532 15.123 31.7533 15.1229 31.7534L15.1229 31.7535L15.5101 32.072C15.5076 32.0762 15.5032 32.083 15.4973 32.0925C15.4633 32.1462 15.3764 32.2834 15.2714 32.4843C15.218 32.457 15.1688 32.4259 15.1358 32.3958C15.0807 32.3191 15.0241 32.1737 15.0147 32.1124C15.0058 32.0138 15.0295 31.9371 15.0339 31.9232L15.0343 31.9219C15.0468 31.8806 15.0624 31.8498 15.0649 31.8448L15.0652 31.8443C15.0702 31.8344 15.0744 31.8269 15.0761 31.8237L15.0808 31.8156C15.0818 31.814 15.0823 31.8132 15.0806 31.8158C15.0792 31.8181 15.076 31.8231 15.0699 31.8328C15.0504 31.8636 15.0178 31.9156 14.9767 31.9852C14.8949 32.124 14.7801 32.3324 14.6631 32.5931C14.4315 33.109 14.1797 33.856 14.1797 34.6875C14.1797 35.7842 14.6699 36.7408 15.1357 37.4067C15.6033 38.0751 16.0848 38.5053 16.1578 38.5644L16.1675 38.5722L16.1774 38.5795L16.5139 38.8251L16.6546 39.2231L16.655 39.2242C17.8156 42.4828 20.3918 45.5813 22.8492 47.8758C25.2843 50.1495 27.8331 51.7881 28.2175 51.9934L28.2232 51.9967L28.3384 52.0625H28.4712H31.1719V52.3767L31.9016 51.9993C32.2439 51.8222 34.8199 50.1722 37.2792 47.8758C39.7365 45.5813 42.3123 42.4815 43.4732 39.2231L18.5392 17.0828ZM12.6013 30.6773L12.6858 30.5511V30.3992V29.0625V25.9387V22.9211C12.6858 15.989 14.5377 11.3891 18.7869 8.48035C23.0384 5.57008 29.783 4.28062 39.7874 4.25054L42.2277 11.5855L42.3416 11.9276H42.7022C43.4871 11.9276 44.1587 12.2807 44.7459 12.9302C45.3418 13.5892 45.833 14.5371 46.2206 15.6611C46.9952 17.9072 47.3108 20.7216 47.3108 22.9211V25.9369V30V30.4266V30.5888L47.406 30.7201C47.8939 31.3931 48.6987 32.663 48.6987 34.6857C48.6987 37.9337 46.7634 39.7248 46.02 40.3513L45.9221 40.4339L45.8759 40.5535C44.4221 44.317 41.723 47.4896 39.1566 49.886C36.4893 52.3765 34.2313 53.8903 33.1652 54.4418L33.1651 54.4418L32.7453 54.659L32.744 54.6597L32.4464 54.8125H27.6838L27.0333 54.4786L27.0322 54.4775L26.9635 54.4419C25.8994 53.8908 23.6389 52.3763 20.9719 49.886C18.4057 47.4899 15.7064 44.3182 14.2525 40.5553L14.2064 40.436L14.1087 40.3535C13.3778 39.7362 11.4297 37.9369 11.4297 34.6875C11.4297 32.6618 12.0845 31.4493 12.6013 30.6773ZM40.2741 17.0223L40.0205 17.0891L43.4734 39.2223L43.6156 38.8255L43.9496 38.5809L43.9804 38.5584L43.9967 38.5422C44.1211 38.4334 44.5565 38.0232 44.9825 37.4163C45.4509 36.7489 45.9487 35.786 45.9487 34.6857C45.9487 33.1334 45.1951 32.2245 44.8889 31.8553L44.8769 31.8407L44.8761 31.8398L44.5608 31.4574V30.9375V29.0222V29.0149L44.5606 29.0076C44.5165 27.5007 44.3435 25.2887 43.7665 23.0931C43.1919 20.9068 42.2002 18.6733 40.4732 17.193L40.2741 17.0223Z" fill="white" stroke="black"/>
</svg>
