<svg width="24" height="24" viewBox="0 0 24 24" fill="none" xmlns="http://www.w3.org/2000/svg">
<path d="M4 12.577V14.385C4 14.5383 4.064 14.6793 4.192 14.808C4.32 14.9367 4.461 15.0007 4.615 15H19.385C19.5383 15 19.6793 14.936 19.808 14.808C19.9367 14.68 20.0007 14.5387 20 14.384V12.577H4ZM4.615 3H19.385C19.8317 3 20.2127 3.15733 20.528 3.472C20.8427 3.78667 21 4.168 21 4.616V14.385C21 14.8317 20.8427 15.2127 20.528 15.528C20.2133 15.8427 19.8323 16 19.385 16H14.923V20.27L12 18.807L9.077 20.268V16H4.616C4.168 16 3.78667 15.8427 3.472 15.528C3.15733 15.2133 3 14.8323 3 14.385V4.615C3 4.16833 3.15733 3.78733 3.472 3.472C3.78667 3.15733 4.168 3 4.616 3M4 10.423H20V4.616C20 4.462 19.936 4.32067 19.808 4.192C19.68 4.06333 19.539 3.99933 19.385 4H4.615C4.46167 4 4.32067 4.064 4.192 4.192C4.06333 4.32 3.99933 4.461 4 4.615V10.423ZM4 14.385V4H4.616C4.462 4 4.32067 4.064 4.192 4.192C4.06333 4.32 3.99933 4.461 4 4.615V14.385ZM4 14.385C4 14.5383 4.064 14.6793 4.192 14.808C4.32 14.9367 4.461 15.0007 4.615 15H4V14.385Z" fill="white"/>
</svg>
