<svg width="31" height="30" viewBox="0 0 31 30" fill="none" xmlns="http://www.w3.org/2000/svg">
<path fill-rule="evenodd" clip-rule="evenodd" d="M7.59766 22.5C7.59766 22.8283 7.53299 23.1534 7.40736 23.4567C7.28172 23.76 7.09757 24.0356 6.86542 24.2678C6.63328 24.4999 6.35768 24.6841 6.05436 24.8097C5.75105 24.9353 5.42596 25 5.09766 25C4.76935 25 4.44426 24.9353 4.14095 24.8097C3.83763 24.6841 3.56204 24.4999 3.32989 24.2678C3.09774 24.0356 2.91359 23.76 2.78796 23.4567C2.66232 23.1534 2.59766 22.8283 2.59766 22.5C2.59766 21.837 2.86105 21.2011 3.32989 20.7322C3.79873 20.2634 4.43462 20 5.09766 20C5.7607 20 6.39658 20.2634 6.86542 20.7322C7.33426 21.2011 7.59766 21.837 7.59766 22.5ZM15.0977 20C15.7607 20 16.3966 20.2634 16.8654 20.7322C17.3343 21.2011 17.5977 21.837 17.5977 22.5C17.5977 23.163 17.3343 23.7989 16.8654 24.2678C16.3966 24.7366 15.7607 25 15.0977 25C14.4346 25 13.7987 24.7366 13.3299 24.2678C12.861 23.7989 12.5977 23.163 12.5977 22.5C12.5977 21.837 12.861 21.2011 13.3299 20.7322C13.7987 20.2634 14.4346 20 15.0977 20ZM25.0977 20C25.7607 20 26.3966 20.2634 26.8654 20.7322C27.3343 21.2011 27.5977 21.837 27.5977 22.5C27.5977 23.163 27.3343 23.7989 26.8654 24.2678C26.3966 24.7366 25.7607 25 25.0977 25C24.4346 25 23.7987 24.7366 23.3299 24.2678C22.861 23.7989 22.5977 23.163 22.5977 22.5C22.5977 21.837 22.861 21.2011 23.3299 20.7322C23.7987 20.2634 24.4346 20 25.0977 20Z" fill="#A2A2A2"/>
</svg>
