<svg width="22" height="22" viewBox="0 0 22 22" fill="none" xmlns="http://www.w3.org/2000/svg">
<path d="M19.8455 18.2186C18.5367 15.9559 16.5197 14.3334 14.1659 13.5643C15.3302 12.8711 16.2348 11.815 16.7408 10.558C17.2467 9.30101 17.3261 7.91268 16.9666 6.60622C16.6072 5.29976 15.8288 4.14741 14.7511 3.32613C13.6734 2.50485 12.3558 2.06006 11.0008 2.06006C9.64581 2.06006 8.32827 2.50485 7.25052 3.32613C6.17278 4.14741 5.39442 5.29976 5.03498 6.60622C4.67554 7.91268 4.7549 9.30101 5.26086 10.558C5.76683 11.815 6.67142 12.8711 7.83573 13.5643C5.48191 14.3326 3.46495 15.9551 2.15613 18.2186C2.10813 18.2969 2.07629 18.384 2.0625 18.4748C2.0487 18.5655 2.05322 18.6581 2.07579 18.7471C2.09837 18.8361 2.13854 18.9197 2.19393 18.9929C2.24932 19.0661 2.31882 19.1275 2.39832 19.1734C2.47782 19.2193 2.56571 19.2488 2.6568 19.2603C2.7479 19.2717 2.84036 19.2647 2.92872 19.2398C3.01709 19.2149 3.09956 19.1725 3.17129 19.1152C3.24302 19.0579 3.30255 18.9868 3.34636 18.9061C4.96542 16.108 7.82714 14.4374 11.0008 14.4374C14.1745 14.4374 17.0362 16.108 18.6553 18.9061C18.6991 18.9868 18.7586 19.0579 18.8303 19.1152C18.9021 19.1725 18.9845 19.2149 19.0729 19.2398C19.1613 19.2647 19.2537 19.2717 19.3448 19.2603C19.4359 19.2488 19.5238 19.2193 19.6033 19.1734C19.6828 19.1275 19.7523 19.0661 19.8077 18.9929C19.8631 18.9197 19.9033 18.8361 19.9258 18.7471C19.9484 18.6581 19.9529 18.5655 19.9391 18.4748C19.9253 18.384 19.8935 18.2969 19.8455 18.2186ZM6.18831 8.2499C6.18831 7.29807 6.47056 6.36763 6.99936 5.57622C7.52817 4.7848 8.27978 4.16797 9.15915 3.80373C10.0385 3.43948 11.0062 3.34418 11.9397 3.52987C12.8732 3.71556 13.7307 4.1739 14.4038 4.84694C15.0768 5.51998 15.5352 6.37749 15.7208 7.31102C15.9065 8.24456 15.8112 9.21219 15.447 10.0916C15.0827 10.9709 14.4659 11.7225 13.6745 12.2513C12.8831 12.7801 11.9526 13.0624 11.0008 13.0624C9.72488 13.061 8.50159 12.5536 7.59937 11.6513C6.69715 10.7491 6.18968 9.52583 6.18831 8.2499Z" fill="white"/>
</svg>
