<svg width="21" height="20" viewBox="0 0 21 20" fill="none" xmlns="http://www.w3.org/2000/svg">
<mask id="path-1-inside-1_1847_877" fill="white">
<path d="M19.4031 11.9165C19.171 11.7378 18.9007 11.615 18.6133 11.558C18.3259 11.501 18.0292 11.5111 17.7464 11.5877L13.9126 12.4691C14.0383 12.1356 14.0812 11.7767 14.0377 11.423C13.9942 11.0694 13.8656 10.7315 13.6629 10.4385C13.4601 10.1454 13.1894 9.90591 12.8738 9.74048C12.5582 9.57505 12.2071 9.48864 11.8508 9.48865H7.60856C7.27458 9.4877 6.94373 9.55305 6.63519 9.68092C6.32665 9.80878 6.04657 9.99662 5.81116 10.2335L3.84427 12.2004H1.34265C1.028 12.2004 0.726234 12.3254 0.50374 12.5479C0.281246 12.7704 0.15625 13.0722 0.15625 13.3868V16.7766C0.15625 17.0912 0.281246 17.393 0.50374 17.6155C0.726234 17.838 1.028 17.963 1.34265 17.963H10.1559C10.1977 17.963 10.2392 17.9579 10.2797 17.9477L15.7032 16.5918C15.7289 16.585 15.7541 16.5766 15.7787 16.5664L19.0684 15.1664L19.0963 15.1537C19.3872 15.0085 19.6363 14.7916 19.8202 14.5234C20.0041 14.2553 20.1166 13.9448 20.1473 13.6211C20.178 13.2974 20.1258 12.9713 19.9956 12.6733C19.8654 12.3754 19.6615 12.1156 19.4031 11.9182V11.9165ZM1.17317 16.7766V13.3868C1.17317 13.3419 1.19102 13.2988 1.22281 13.267C1.25459 13.2352 1.2977 13.2174 1.34265 13.2174H3.54598V16.946H1.34265C1.2977 16.946 1.25459 16.9282 1.22281 16.8964C1.19102 16.8646 1.17317 16.8215 1.17317 16.7766ZM18.654 14.2343L15.4168 15.613L10.0932 16.946H4.56289V12.9199L6.52978 10.9522C6.67113 10.8101 6.83925 10.6974 7.02443 10.6208C7.20961 10.5441 7.40815 10.505 7.60856 10.5056H11.8508C12.1655 10.5056 12.4672 10.6306 12.6897 10.8531C12.9122 11.0756 13.0372 11.3773 13.0372 11.692C13.0372 12.0066 12.9122 12.3084 12.6897 12.5309C12.4672 12.7534 12.1655 12.8784 11.8508 12.8784H9.478C9.34315 12.8784 9.21382 12.9319 9.11846 13.0273C9.02311 13.1227 8.96954 13.252 8.96954 13.3868C8.96954 13.5217 9.02311 13.651 9.11846 13.7464C9.21382 13.8417 9.34315 13.8953 9.478 13.8953H12.1898C12.228 13.8953 12.2661 13.8911 12.3033 13.8826L17.9811 12.5767L18.0015 12.5716C18.2152 12.5133 18.4429 12.5361 18.6408 12.6355C18.8388 12.7349 18.993 12.9039 19.0739 13.1101C19.1548 13.3163 19.1567 13.5451 19.0792 13.7526C19.0017 13.9601 18.8503 14.1316 18.654 14.2343ZM13.8846 7.79379C14.092 7.7937 14.2989 7.77154 14.5016 7.72769C14.6541 8.26924 14.9618 8.7543 15.3867 9.12301C15.8117 9.49172 16.3353 9.72795 16.8929 9.80254C17.4506 9.87714 18.0179 9.78685 18.5248 9.5428C19.0317 9.29875 19.4561 8.91163 19.7456 8.4292C20.0351 7.94677 20.177 7.39015 20.1538 6.82801C20.1306 6.26588 19.9434 5.72283 19.6152 5.26587C19.287 4.80891 18.8321 4.45804 18.3068 4.25655C17.7815 4.05507 17.2087 4.01178 16.6591 4.13203C16.5139 3.61588 16.2275 3.15049 15.8322 2.78823C15.4368 2.42597 14.9482 2.18122 14.4214 2.08151C13.8945 1.98179 13.3503 2.03108 12.8499 2.22381C12.3496 2.41655 11.9129 2.74509 11.5891 3.17247C11.2653 3.59985 11.0671 4.10912 11.017 4.64297C10.9668 5.17683 11.0666 5.71409 11.3051 6.19431C11.5437 6.67453 11.9115 7.07867 12.3672 7.36124C12.8229 7.64381 13.3484 7.79361 13.8846 7.79379ZM19.1387 6.94635C19.1387 7.31509 19.0294 7.67554 18.8245 7.98213C18.6197 8.28872 18.3285 8.52768 17.9878 8.66879C17.6472 8.8099 17.2723 8.84682 16.9107 8.77488C16.549 8.70295 16.2168 8.52538 15.9561 8.26465C15.6953 8.00392 15.5178 7.67172 15.4458 7.31007C15.3739 6.94842 15.4108 6.57356 15.5519 6.2329C15.693 5.89223 15.932 5.60106 16.2386 5.3962C16.5452 5.19135 16.9056 5.082 17.2744 5.082C17.7688 5.082 18.243 5.27843 18.5927 5.62806C18.9423 5.97769 19.1387 6.4519 19.1387 6.94635ZM13.8846 3.04817C14.3127 3.04766 14.7277 3.19484 15.0598 3.46486C15.3919 3.73488 15.6207 4.11121 15.7075 4.53033C15.3389 4.76932 15.0299 5.08942 14.804 5.46615C14.5781 5.84289 14.4413 6.26629 14.4041 6.70399C14.1478 6.77783 13.8787 6.79582 13.6148 6.75675C13.351 6.71768 13.0986 6.62246 12.8747 6.47751C12.6509 6.33256 12.4607 6.14126 12.317 5.91653C12.1734 5.69179 12.0797 5.43886 12.0421 5.1748C12.0046 4.91074 12.0242 4.6417 12.0995 4.38585C12.1749 4.13 12.3043 3.8933 12.4789 3.69172C12.6535 3.49014 12.8694 3.32838 13.1119 3.21736C13.3544 3.10634 13.6179 3.04864 13.8846 3.04817Z"/>
</mask>
<path d="M19.4031 11.9165C19.171 11.7378 18.9007 11.615 18.6133 11.558C18.3259 11.501 18.0292 11.5111 17.7464 11.5877L13.9126 12.4691C14.0383 12.1356 14.0812 11.7767 14.0377 11.423C13.9942 11.0694 13.8656 10.7315 13.6629 10.4385C13.4601 10.1454 13.1894 9.90591 12.8738 9.74048C12.5582 9.57505 12.2071 9.48864 11.8508 9.48865H7.60856C7.27458 9.4877 6.94373 9.55305 6.63519 9.68092C6.32665 9.80878 6.04657 9.99662 5.81116 10.2335L3.84427 12.2004H1.34265C1.028 12.2004 0.726234 12.3254 0.50374 12.5479C0.281246 12.7704 0.15625 13.0722 0.15625 13.3868V16.7766C0.15625 17.0912 0.281246 17.393 0.50374 17.6155C0.726234 17.838 1.028 17.963 1.34265 17.963H10.1559C10.1977 17.963 10.2392 17.9579 10.2797 17.9477L15.7032 16.5918C15.7289 16.585 15.7541 16.5766 15.7787 16.5664L19.0684 15.1664L19.0963 15.1537C19.3872 15.0085 19.6363 14.7916 19.8202 14.5234C20.0041 14.2553 20.1166 13.9448 20.1473 13.6211C20.178 13.2974 20.1258 12.9713 19.9956 12.6733C19.8654 12.3754 19.6615 12.1156 19.4031 11.9182V11.9165ZM1.17317 16.7766V13.3868C1.17317 13.3419 1.19102 13.2988 1.22281 13.267C1.25459 13.2352 1.2977 13.2174 1.34265 13.2174H3.54598V16.946H1.34265C1.2977 16.946 1.25459 16.9282 1.22281 16.8964C1.19102 16.8646 1.17317 16.8215 1.17317 16.7766ZM18.654 14.2343L15.4168 15.613L10.0932 16.946H4.56289V12.9199L6.52978 10.9522C6.67113 10.8101 6.83925 10.6974 7.02443 10.6208C7.20961 10.5441 7.40815 10.505 7.60856 10.5056H11.8508C12.1655 10.5056 12.4672 10.6306 12.6897 10.8531C12.9122 11.0756 13.0372 11.3773 13.0372 11.692C13.0372 12.0066 12.9122 12.3084 12.6897 12.5309C12.4672 12.7534 12.1655 12.8784 11.8508 12.8784H9.478C9.34315 12.8784 9.21382 12.9319 9.11846 13.0273C9.02311 13.1227 8.96954 13.252 8.96954 13.3868C8.96954 13.5217 9.02311 13.651 9.11846 13.7464C9.21382 13.8417 9.34315 13.8953 9.478 13.8953H12.1898C12.228 13.8953 12.2661 13.8911 12.3033 13.8826L17.9811 12.5767L18.0015 12.5716C18.2152 12.5133 18.4429 12.5361 18.6408 12.6355C18.8388 12.7349 18.993 12.9039 19.0739 13.1101C19.1548 13.3163 19.1567 13.5451 19.0792 13.7526C19.0017 13.9601 18.8503 14.1316 18.654 14.2343ZM13.8846 7.79379C14.092 7.7937 14.2989 7.77154 14.5016 7.72769C14.6541 8.26924 14.9618 8.7543 15.3867 9.12301C15.8117 9.49172 16.3353 9.72795 16.8929 9.80254C17.4506 9.87714 18.0179 9.78685 18.5248 9.5428C19.0317 9.29875 19.4561 8.91163 19.7456 8.4292C20.0351 7.94677 20.177 7.39015 20.1538 6.82801C20.1306 6.26588 19.9434 5.72283 19.6152 5.26587C19.287 4.80891 18.8321 4.45804 18.3068 4.25655C17.7815 4.05507 17.2087 4.01178 16.6591 4.13203C16.5139 3.61588 16.2275 3.15049 15.8322 2.78823C15.4368 2.42597 14.9482 2.18122 14.4214 2.08151C13.8945 1.98179 13.3503 2.03108 12.8499 2.22381C12.3496 2.41655 11.9129 2.74509 11.5891 3.17247C11.2653 3.59985 11.0671 4.10912 11.017 4.64297C10.9668 5.17683 11.0666 5.71409 11.3051 6.19431C11.5437 6.67453 11.9115 7.07867 12.3672 7.36124C12.8229 7.64381 13.3484 7.79361 13.8846 7.79379ZM19.1387 6.94635C19.1387 7.31509 19.0294 7.67554 18.8245 7.98213C18.6197 8.28872 18.3285 8.52768 17.9878 8.66879C17.6472 8.8099 17.2723 8.84682 16.9107 8.77488C16.549 8.70295 16.2168 8.52538 15.9561 8.26465C15.6953 8.00392 15.5178 7.67172 15.4458 7.31007C15.3739 6.94842 15.4108 6.57356 15.5519 6.2329C15.693 5.89223 15.932 5.60106 16.2386 5.3962C16.5452 5.19135 16.9056 5.082 17.2744 5.082C17.7688 5.082 18.243 5.27843 18.5927 5.62806C18.9423 5.97769 19.1387 6.4519 19.1387 6.94635ZM13.8846 3.04817C14.3127 3.04766 14.7277 3.19484 15.0598 3.46486C15.3919 3.73488 15.6207 4.11121 15.7075 4.53033C15.3389 4.76932 15.0299 5.08942 14.804 5.46615C14.5781 5.84289 14.4413 6.26629 14.4041 6.70399C14.1478 6.77783 13.8787 6.79582 13.6148 6.75675C13.351 6.71768 13.0986 6.62246 12.8747 6.47751C12.6509 6.33256 12.4607 6.14126 12.317 5.91653C12.1734 5.69179 12.0797 5.43886 12.0421 5.1748C12.0046 4.91074 12.0242 4.6417 12.0995 4.38585C12.1749 4.13 12.3043 3.8933 12.4789 3.69172C12.6535 3.49014 12.8694 3.32838 13.1119 3.21736C13.3544 3.10634 13.6179 3.04864 13.8846 3.04817Z" stroke="black" stroke-width="2" mask="url(#path-1-inside-1_1847_877)"/>
</svg>
