<svg width="31" height="30" viewBox="0 0 31 30" fill="none" xmlns="http://www.w3.org/2000/svg">
<path d="M22.1714 5.08333C22.1714 4.75891 22.315 4.42798 22.6044 4.16965C22.8965 3.90883 23.3091 3.75 23.7548 3.75H26.8659C27.3115 3.75 27.7242 3.90883 28.0163 4.16965C28.3056 4.42798 28.4492 4.75891 28.4492 5.08333V25.9167C28.4492 26.2411 28.3056 26.572 28.0163 26.8303C27.7242 27.0912 27.3115 27.25 26.8659 27.25H23.7548C23.3091 27.25 22.8965 27.0912 22.6044 26.8304C22.315 26.572 22.1714 26.2411 22.1714 25.9167V5.08333ZM12.0603 13.4167C12.0603 13.0922 12.2039 12.7613 12.4933 12.503C12.7854 12.2422 13.198 12.0833 13.6437 12.0833H16.7548C17.2004 12.0833 17.6131 12.2422 17.9052 12.503C18.1945 12.7613 18.3381 13.0922 18.3381 13.4167V25.9167C18.3381 26.2411 18.1945 26.572 17.9052 26.8303C17.6131 27.0912 17.2004 27.25 16.7548 27.25H13.6437C13.198 27.25 12.7854 27.0912 12.4933 26.8304C12.2039 26.572 12.0603 26.2411 12.0603 25.9167V13.4167ZM2.38215 20.8363C2.67426 20.5755 3.08692 20.4167 3.53255 20.4167H6.64366C7.0893 20.4167 7.50196 20.5755 7.79407 20.8363L8.29358 20.2769L7.79407 20.8363C8.0834 21.0946 8.227 21.4256 8.227 21.75V25.9167C8.227 26.2411 8.0834 26.572 7.79407 26.8303L8.29358 27.3898L7.79407 26.8304C7.50196 27.0912 7.0893 27.25 6.64366 27.25H3.53255C3.08692 27.25 2.67426 27.0912 2.38215 26.8304L1.88631 27.3857L2.38215 26.8303C2.09282 26.572 1.94922 26.2411 1.94922 25.9167V21.75C1.94922 21.4256 2.09282 21.0946 2.38215 20.8363L1.88631 20.281L2.38215 20.8363Z" stroke="#A2A2A2" stroke-width="1.5"/>
</svg>
