<svg width="24" height="24" viewBox="0 0 24 24" fill="none" xmlns="http://www.w3.org/2000/svg">
<path d="M13 6H6.5C4.567 6 3 7.567 3 9.5V14.5C3 16.433 4.567 18 6.5 18H13C14.933 18 16.5 16.433 16.5 14.5V9.5C16.5 7.567 14.933 6 13 6Z" stroke="white" stroke-width="1.5" stroke-linecap="round" stroke-linejoin="round"/>
<path d="M16.5 9.7402L20.054 7.9702C20.2065 7.89423 20.3758 7.85846 20.546 7.86629C20.7161 7.87412 20.8815 7.92528 21.0263 8.01493C21.1711 8.10458 21.2907 8.22974 21.3736 8.37854C21.4565 8.52735 21.5 8.69486 21.5 8.8652V15.1332C21.5001 15.3037 21.4566 15.4713 21.3736 15.6203C21.2907 15.7692 21.171 15.8945 21.026 15.9841C20.881 16.0738 20.7155 16.1249 20.5452 16.1326C20.3749 16.1404 20.2055 16.1044 20.053 16.0282L16.5 14.2552V9.7402Z" stroke="white" stroke-width="1.5" stroke-linecap="round" stroke-linejoin="round"/>
</svg>
