<svg width="16" height="20" viewBox="0 0 16 20" fill="none" xmlns="http://www.w3.org/2000/svg">
<path d="M16 8.85538C16 13.7701 12.5867 18.3661 8 19.4818C3.41333 18.3661 0 13.7701 0 8.85538V3.54215L8 0L16 3.54215V8.85538ZM8 17.7108C11.3333 16.8252 14.2222 12.8757 14.2222 9.0502V4.69335L8 1.93047L1.77778 4.69335V9.0502C1.77778 12.8757 4.66667 16.8252 8 17.7108ZM10.7111 13.2831L7.97333 11.6448L5.24444 13.2831L5.96444 10.1837L3.55556 8.11153L6.73778 7.83701L7.97333 4.91474L9.21778 7.82816L12.4 8.10267L9.98222 10.1837L10.7111 13.2831Z" fill="#A2A2A2"/>
</svg>
