<svg width="20" height="20" viewBox="0 0 20 20" fill="none" xmlns="http://www.w3.org/2000/svg">
<path fill-rule="evenodd" clip-rule="evenodd" d="M9.12 1.0415H10.88C12.4117 1.0415 13.625 1.0415 14.5742 1.169C15.5508 1.30067 16.3417 1.57734 16.9658 2.20067C17.5892 2.82484 17.8658 3.61567 17.9975 4.59234C18.125 5.54234 18.125 6.75484 18.125 8.2865V11.7132C18.125 13.2448 18.125 14.4582 17.9975 15.4073C17.8658 16.384 17.5892 17.1748 16.9658 17.799C16.3417 18.4223 15.5508 18.699 14.5742 18.8307C13.6242 18.9582 12.4117 18.9582 10.88 18.9582H9.12C7.58833 18.9582 6.375 18.9582 5.42583 18.8307C4.44917 18.699 3.65833 18.4223 3.03417 17.799C2.41083 17.1748 2.13417 16.384 2.0025 15.4073C1.875 14.4573 1.875 13.2448 1.875 11.7132V8.2865C1.875 6.75484 1.875 5.5415 2.0025 4.59234C2.13417 3.61567 2.41083 2.82484 3.03417 2.20067C3.65833 1.57734 4.44917 1.30067 5.42583 1.169C6.37583 1.0415 7.58833 1.0415 9.12 1.0415ZM5.59167 2.40817C4.75333 2.52067 4.27 2.73234 3.91667 3.08484C3.565 3.43734 3.35333 3.92067 3.24083 4.759C3.12583 5.61567 3.12417 6.744 3.12417 8.33317V11.6665C3.12417 13.2557 3.12583 14.3848 3.24083 15.2415C3.35333 16.079 3.565 16.5623 3.9175 16.9148C4.27 17.2673 4.75333 17.479 5.59167 17.5915C6.44833 17.7065 7.57667 17.7082 9.16583 17.7082H10.8325C12.4217 17.7082 13.5508 17.7065 14.4075 17.5915C15.245 17.479 15.7283 17.2673 16.0808 16.9148C16.4333 16.5623 16.645 16.079 16.7575 15.2407C16.8725 14.3848 16.8742 13.2557 16.8742 11.6665V8.33317C16.8742 6.744 16.8725 5.61567 16.7575 4.75817C16.645 3.92067 16.4333 3.43734 16.0808 3.08484C15.7283 2.73234 15.245 2.52067 14.4067 2.40817C13.5508 2.29317 12.4217 2.2915 10.8325 2.2915H9.16583C7.57667 2.2915 6.44917 2.29317 5.59167 2.40817ZM6.04167 8.33317C6.04167 8.16741 6.10751 8.00844 6.22472 7.89123C6.34194 7.77402 6.50091 7.70817 6.66667 7.70817H13.3333C13.4991 7.70817 13.6581 7.77402 13.7753 7.89123C13.8925 8.00844 13.9583 8.16741 13.9583 8.33317C13.9583 8.49893 13.8925 8.6579 13.7753 8.77511C13.6581 8.89232 13.4991 8.95817 13.3333 8.95817H6.66667C6.50091 8.95817 6.34194 8.89232 6.22472 8.77511C6.10751 8.6579 6.04167 8.49893 6.04167 8.33317ZM6.04167 11.6665C6.04167 11.5007 6.10751 11.3418 6.22472 11.2246C6.34194 11.1074 6.50091 11.0415 6.66667 11.0415H10.8333C10.9991 11.0415 11.1581 11.1074 11.2753 11.2246C11.3925 11.3418 11.4583 11.5007 11.4583 11.6665C11.4583 11.8323 11.3925 11.9912 11.2753 12.1084C11.1581 12.2257 10.9991 12.2915 10.8333 12.2915H6.66667C6.50091 12.2915 6.34194 12.2257 6.22472 12.1084C6.10751 11.9912 6.04167 11.8323 6.04167 11.6665Z" fill="white"/>
</svg>
