<svg width="20" height="20" viewBox="0 0 20 20" fill="none" xmlns="http://www.w3.org/2000/svg">
<path d="M10 0C15.342 0 20 4.41001 20 9.50001C20 14.504 15.447 18.442 10 18.442C8.83497 18.4428 7.67721 18.2585 6.57 17.896C6.106 18.346 5.947 18.499 4.962 19.449C4.252 19.985 3.584 20.167 2.987 19.829C2.385 19.489 2.204 18.827 2.327 17.955L2.727 15.636C0.99 14.002 0 11.842 0 9.50001C0 4.41001 4.657 0 10 0ZM10 1.4C5.414 1.4 1.4 5.20001 1.4 9.50001C1.4 11.545 2.312 13.428 3.92 14.83L3.94 14.847L4.237 15.105L4.17 15.495L4.032 16.299L3.995 16.513L3.71 18.171C3.69367 18.2827 3.68365 18.3952 3.68 18.508V18.603C3.68 18.6077 3.678 18.611 3.678 18.611C3.685 18.601 3.821 18.558 4.054 18.388L6.224 16.282L6.638 16.438C7.71349 16.8391 8.85218 17.044 10 17.043C14.716 17.043 18.6 13.683 18.6 9.50001C18.6 5.20101 14.586 1.4 10 1.4ZM5.227 7.81301C5.42846 7.80565 5.62933 7.83898 5.81762 7.91099C6.00591 7.98301 6.17776 8.09224 6.32288 8.23216C6.46801 8.37209 6.58344 8.53982 6.66228 8.72536C6.74113 8.9109 6.78176 9.11042 6.78176 9.31201C6.78176 9.51361 6.74113 9.71313 6.66228 9.89867C6.58344 10.0842 6.46801 10.2519 6.32288 10.3919C6.17776 10.5318 6.00591 10.641 5.81762 10.713C5.62933 10.7851 5.42846 10.8184 5.227 10.811C4.83892 10.7968 4.47146 10.6327 4.20192 10.3531C3.93237 10.0736 3.78176 9.70036 3.78176 9.31201C3.78176 8.92367 3.93237 8.55046 4.20192 8.27089C4.47146 7.99133 4.83892 7.82719 5.227 7.81301ZM10.225 7.81301C10.4265 7.80565 10.6273 7.83898 10.8156 7.91099C11.0039 7.98301 11.1758 8.09224 11.3209 8.23216C11.466 8.37209 11.5814 8.53982 11.6603 8.72536C11.7391 8.9109 11.7798 9.11042 11.7798 9.31201C11.7798 9.51361 11.7391 9.71313 11.6603 9.89867C11.5814 10.0842 11.466 10.2519 11.3209 10.3919C11.1758 10.5318 11.0039 10.641 10.8156 10.713C10.6273 10.7851 10.4265 10.8184 10.225 10.811C9.83692 10.7968 9.46946 10.6327 9.19991 10.3531C8.93037 10.0736 8.77976 9.70036 8.77976 9.31201C8.77976 8.92367 8.93037 8.55046 9.19991 8.27089C9.46946 7.99133 9.83692 7.82719 10.225 7.81301ZM15.222 7.81301C15.4235 7.80565 15.6243 7.83898 15.8126 7.91099C16.0009 7.98301 16.1728 8.09224 16.3179 8.23216C16.463 8.37209 16.5784 8.53982 16.6573 8.72536C16.7361 8.9109 16.7768 9.11042 16.7768 9.31201C16.7768 9.51361 16.7361 9.71313 16.6573 9.89867C16.5784 10.0842 16.463 10.2519 16.3179 10.3919C16.1728 10.5318 16.0009 10.641 15.8126 10.713C15.6243 10.7851 15.4235 10.8184 15.222 10.811C14.8339 10.7968 14.4665 10.6327 14.1969 10.3531C13.9274 10.0736 13.7768 9.70036 13.7768 9.31201C13.7768 8.92367 13.9274 8.55046 14.1969 8.27089C14.4665 7.99133 14.8339 7.82719 15.222 7.81301Z" fill="white"/>
</svg>
