<svg width="30" height="30" viewBox="0 0 30 30" fill="none" xmlns="http://www.w3.org/2000/svg">
<path d="M14.5 3C12.0277 3 9.61099 3.73311 7.55538 5.10663C5.49976 6.48015 3.89761 8.43238 2.95151 10.7165C2.00542 13.0005 1.75787 15.5139 2.24019 17.9386C2.7225 20.3634 3.91301 22.5907 5.66117 24.3388C7.40933 26.087 9.63661 27.2775 12.0614 27.7598C14.4861 28.2421 16.9995 27.9946 19.2835 27.0485C21.5676 26.1024 23.5199 24.5002 24.8934 22.4446C26.2669 20.389 27 17.9723 27 15.5C26.9964 12.1859 25.6782 9.0086 23.3348 6.66518C20.9914 4.32177 17.8141 3.00364 14.5 3ZM19.6088 21.4275L18.1475 19.4162L19.8913 14.3362L22.2575 13.5675L25.9638 16.41C25.8251 18.1854 25.2729 19.9037 24.3512 21.4275H19.6088ZM9.39125 21.4275H4.64875C3.72715 19.9037 3.17493 18.1854 3.03626 16.41L6.74251 13.5675L9.10875 14.3362L10.8525 19.4162L9.39125 21.4275ZM4.96125 9.0825L6.07 12.8225L3.00001 15.1737C3.06018 12.998 3.74062 10.8846 4.96125 9.0825ZM11.7663 19L10.0963 14.135L14.5 11.1062L18.9038 14.135L17.2338 19H11.7663ZM22.93 12.8225L24.0387 9.0825C25.2594 10.8846 25.9398 12.998 26 15.1737L22.93 12.8225ZM23.2887 8.0925L21.9488 12.6162L19.5738 13.3862L15 10.2375V7.7625L19.085 4.955C20.7082 5.66474 22.1466 6.73823 23.2887 8.0925ZM17.9425 4.52625L14.5 6.89375L11.0575 4.52625C13.2989 3.82472 15.7011 3.82472 17.9425 4.52625ZM9.915 4.955L14 7.7625V10.2375L9.42 13.3862L7.045 12.6162L5.71125 8.0925C6.85345 6.73823 8.29176 5.66474 9.915 4.955ZM5.32626 22.4275H9.2925L10.68 26.3475C8.55063 25.5922 6.68932 24.2294 5.32626 22.4275ZM11.8638 26.695L10.205 22.0075L11.665 20H17.335L18.795 22.0075L17.1363 26.695C15.4023 27.1015 13.5977 27.1015 11.8638 26.695ZM18.32 26.3475L19.7075 22.4275H23.6737C22.3107 24.2294 20.4494 25.5922 18.32 26.3475Z" fill="#A2A2A2" stroke="#A2A2A2" stroke-width="0.5"/>
</svg>
