<svg width="20" height="20" viewBox="0 0 20 20" fill="none" xmlns="http://www.w3.org/2000/svg">
<path fill-rule="evenodd" clip-rule="evenodd" d="M4.86535 2.12067C5.20559 1.82769 5.63968 1.66653 6.08868 1.6665H7.53451C7.68241 1.66644 7.82553 1.71882 7.93844 1.81434C8.05135 1.90985 8.12673 2.04231 8.15118 2.18817C8.22506 2.62504 8.45126 3.02164 8.78968 3.30763C9.1281 3.59362 9.55686 3.75052 9.99993 3.75052C10.443 3.75052 10.8718 3.59362 11.2102 3.30763C11.5486 3.02164 11.7748 2.62504 11.8487 2.18817C11.8731 2.04231 11.9485 1.90985 12.0614 1.81434C12.1743 1.71882 12.3175 1.66644 12.4653 1.6665H13.9103C14.3603 1.6665 14.7937 1.82734 15.1337 2.12067L18.532 5.04734C18.6404 5.1405 18.7136 5.26799 18.7393 5.40856C18.7651 5.54912 18.7419 5.69428 18.6737 5.81984L17.1112 8.68484C17.0714 8.7577 17.0176 8.82193 16.9528 8.87376C16.8879 8.92559 16.8134 8.96399 16.7336 8.98672C16.6538 9.00945 16.5703 9.01605 16.4878 9.00614C16.4054 8.99623 16.3258 8.97001 16.2537 8.929L15.6245 8.57234V16.4582C15.6245 16.7044 15.576 16.9482 15.4818 17.1757C15.3876 17.4032 15.2494 17.6099 15.0753 17.784C14.9012 17.9581 14.6945 18.0962 14.467 18.1904C14.2396 18.2847 13.9957 18.3332 13.7495 18.3332H6.24951C5.75223 18.3332 5.27532 18.1356 4.92369 17.784C4.57206 17.4324 4.37451 16.9555 4.37451 16.4582V8.57234L3.74535 8.929C3.67322 8.96988 3.59369 8.99599 3.51137 9.00583C3.42906 9.01567 3.34561 9.00904 3.26588 8.98631C3.18616 8.96359 3.11175 8.92523 3.04699 8.87347C2.98223 8.82172 2.92842 8.75759 2.88868 8.68484L1.32618 5.81984C1.25782 5.69437 1.23451 5.54927 1.26014 5.40871C1.28576 5.26815 1.35878 5.14061 1.46701 5.04734L4.86535 2.12067ZM6.08868 2.9165C5.93879 2.91646 5.79387 2.97029 5.68035 3.06817L2.66618 5.66484L3.68285 7.52817L4.69201 6.95567C4.78711 6.90193 4.89462 6.87405 5.00384 6.87481C5.11307 6.87556 5.22019 6.90493 5.31452 6.95998C5.40886 7.01503 5.48712 7.09385 5.54151 7.18857C5.5959 7.28329 5.62452 7.39061 5.62451 7.49984V16.4582C5.62451 16.8032 5.90451 17.0832 6.24951 17.0832H13.7495C13.9153 17.0832 14.0742 17.0173 14.1915 16.9001C14.3087 16.7829 14.3745 16.6239 14.3745 16.4582V7.49984C14.3744 7.39049 14.403 7.28303 14.4575 7.1882C14.5119 7.09336 14.5903 7.01446 14.6847 6.95939C14.7792 6.90431 14.8864 6.87498 14.9958 6.87433C15.1051 6.87368 15.2127 6.90173 15.3078 6.95567L16.3178 7.52817L17.3345 5.66484L14.3178 3.06817C14.2045 2.97047 14.06 2.91666 13.9103 2.9165H12.9462C12.7309 3.52605 12.3319 4.05384 11.8042 4.42715C11.2765 4.80047 10.6459 5.00094 9.99951 5.00094C9.35308 5.00094 8.72256 4.80047 8.19482 4.42715C7.66708 4.05384 7.2681 3.52605 7.05285 2.9165H6.08868Z" fill="white"/>
</svg>
